/* XPM */
static char *collect[] = {
/* columns rows colors chars-per-pixel */
"80 80 4 1 ",
"  c #008088",
". c #DAA06D",
"X c #FFFFFF",
"o c gray99",
/* pixels */
"                                                                                ",
"                                                                                ",
"                                                                                ",
"                                                                                ",
"                                                                                ",
"                                                                                ",
"                                                                                ",
"                                                                                ",
"                                                                                ",
"                                                                                ",
"                                                                                ",
"                                                                                ",
"                                                                                ",
"                                                                                ",
"                                                                                ",
"                                                                                ",
"                                                                                ",
"                                                                                ",
"                                                                                ",
"                                                                                ",
"                                                                                ",
"                                                                                ",
"                                                                                ",
"                                                                                ",
"                                                                                ",
"ooooo     ooooo     ooooo                                                       ",
"ooooo     ooooo     ooooo                                                       ",
"ooooo     ooooo     ooooo                                                       ",
"ooooo     ooooo     ooooo                                                       ",
"ooooo     ooooo     ooooo                                                       ",
"     ooooo     ooooo     ooooo                              XXXXXXXXXX          ",
"     ooooo     ooooo     ooooo                              XXXXXXXXXX          ",
"     ooooo     ooooo     ooooo                              XXXXXXXXXX          ",
"     ooooo     ooooo     ooooo                              XXXXXXXXXX          ",
"     ooooo     ooooo     ooooo                              XXXXXXXXXX          ",
".................................................................XXXXXXXXXXXXXXX",
".................................................................XXXXXXXXXXXXXXX",
".................................................................XXXXXXXXXXXXXXX",
".................................................................XXXXXXXXXXXXXXX",
".................................................................XXXXXXXXXXXXXXX",
"     ooooo     ooooo     ooooo                              XXXXXXXXXX          ",
"     ooooo     ooooo     ooooo                              XXXXXXXXXX          ",
"     ooooo     ooooo     ooooo                              XXXXXXXXXX          ",
"     ooooo     ooooo     ooooo                              XXXXXXXXXX          ",
"     ooooo     ooooo     ooooo                              XXXXXXXXXX          ",
"ooooo     ooooo     ooooo                                                       ",
"ooooo     ooooo     ooooo                                                       ",
"ooooo     ooooo     ooooo                                                       ",
"ooooo     ooooo     ooooo                                                       ",
"ooooo     ooooo     ooooo                                                       ",
"                                                                                ",
"                                                                                ",
"                                                                                ",
"                                                                                ",
"                                                                                ",
"                                                                                ",
"                                                                                ",
"                                                                                ",
"                                                                                ",
"                                                                                ",
"                                                                                ",
"                                                                                ",
"                                                                                ",
"                                                                                ",
"                                                                                ",
"                                                                                ",
"                                                                                ",
"                                                                                ",
"                                                                                ",
"                                                                                ",
"                                                                                ",
"                                                                                ",
"                                                                                ",
"                                                                                ",
"                                                                                ",
"                                                                                ",
"                                                                                ",
"                                                                                ",
"                                                                                ",
"                                                                                "
};
