/* XPM */
static char *exit[] = {
/* columns rows colors chars-per-pixel */
"80 80 4 1 ",
"  c black",
". c #183C5C",
"X c #008088",
"o c #00E8D8",
/* pixels */
"oooooooooooooooooooooooooooooooooooooooooooooooooooooooooooooooooooooooooooooooo",
"oooooooooooooooooooooooooooooooooooooooooooooooooooooooooooooooooooooooooooooooo",
"oooooooooooooooooooooooooooooooooooooooooooooooooooooooooooooooooooooooooooooooo",
"oooooooooooooooooooooooooooooooooooooooooooooooooooooooooooooooooooooooooooooooo",
"oooooooooooooooooooooooooooooooooooooooooooooooooooooooooooooooooooooooooooooooo",
"ooooo                                                                      ooooo",
"ooooo                                                                      ooooo",
"ooooo                                                                      ooooo",
"ooooo                                                                      ooooo",
"ooooo                                                                      ooooo",
"oooooXXXXXXXXXX                                                            ooooo",
"oooooXXXXXXXXXX                                                            ooooo",
"oooooXXXXXXXXXX                                                            ooooo",
"oooooXXXXXXXXXX                                                            ooooo",
"oooooXXXXXXXXXX                                                            ooooo",
"oooooXXXXXXXXXX.....                                                       ooooo",
"oooooXXXXXXXXXX.....                                                       ooooo",
"oooooXXXXXXXXXX.....                                                       ooooo",
"oooooXXXXXXXXXX.....                                                       ooooo",
"oooooXXXXXXXXXX.....                                                       ooooo",
"oooooXXXXXXXXXX.....XXXXXXXXXXXXXXX                                        ooooo",
"oooooXXXXXXXXXX.....XXXXXXXXXXXXXXX                                        ooooo",
"oooooXXXXXXXXXX.....XXXXXXXXXXXXXXX                                        ooooo",
"oooooXXXXXXXXXX.....XXXXXXXXXXXXXXX                                        ooooo",
"oooooXXXXXXXXXX.....XXXXXXXXXXXXXXX                                        ooooo",
"oooooXXXXXXXXXX.....XXXXXXXXXXXXXXX.....                                   ooooo",
"oooooXXXXXXXXXX.....XXXXXXXXXXXXXXX.....                                   ooooo",
"oooooXXXXXXXXXX.....XXXXXXXXXXXXXXX.....                                   ooooo",
"oooooXXXXXXXXXX.....XXXXXXXXXXXXXXX.....                                   ooooo",
"oooooXXXXXXXXXX.....XXXXXXXXXXXXXXX.....                                   ooooo",
"oooooXXXXXXXXXX.....XXXXXXXXXXXXXXX.....XXXXXXXXXXXXXXX                    ooooo",
"oooooXXXXXXXXXX.....XXXXXXXXXXXXXXX.....XXXXXXXXXXXXXXX                    ooooo",
"oooooXXXXXXXXXX.....XXXXXXXXXXXXXXX.....XXXXXXXXXXXXXXX                    ooooo",
"oooooXXXXXXXXXX.....XXXXXXXXXXXXXXX.....XXXXXXXXXXXXXXX                    ooooo",
"oooooXXXXXXXXXX.....XXXXXXXXXXXXXXX.....XXXXXXXXXXXXXXX                    ooooo",
"oooooXXXXXXXXXX.....XXXXXXXXXXXXXXX.....XXXXXXXXXXXXXXX.....               ooooo",
"oooooXXXXXXXXXX.....XXXXXXXXXXXXXXX.....XXXXXXXXXXXXXXX.....               ooooo",
"oooooXXXXXXXXXX.....XXXXXXXXXXXXXXX.....XXXXXXXXXXXXXXX.....               ooooo",
"oooooXXXXXXXXXX.....XXXXXXXXXXXXXXX.....XXXXXXXXXXXXXXX.....               ooooo",
"oooooXXXXXXXXXX.....XXXXXXXXXXXXXXX.....XXXXXXXXXXXXXXX.....               ooooo",
"oooooXXXXXXXXXX.....XXXXXXXXXXXXXXX.....XXXXXXXXXXXXXXX.....XXXXXXXXXXXXXXXooooo",
"oooooXXXXXXXXXX.....XXXXXXXXXXXXXXX.....XXXXXXXXXXXXXXX.....XXXXXXXXXXXXXXXooooo",
"oooooXXXXXXXXXX.....XXXXXXXXXXXXXXX.....XXXXXXXXXXXXXXX.....XXXXXXXXXXXXXXXooooo",
"oooooXXXXXXXXXX.....XXXXXXXXXXXXXXX.....XXXXXXXXXXXXXXX.....XXXXXXXXXXXXXXXooooo",
"oooooXXXXXXXXXX.....XXXXXXXXXXXXXXX.....XXXXXXXXXXXXXXX.....XXXXXXXXXXXXXXXooooo",
"oooooXXXXXXXXXX.....XXXXXXXXXXXXXXX.....XXXXXXXXXXXXXXX.....XXXXXXXXXXXXXXXooooo",
"oooooXXXXXXXXXX.....XXXXXXXXXXXXXXX.....XXXXXXXXXXXXXXX.....XXXXXXXXXXXXXXXooooo",
"oooooXXXXXXXXXX.....XXXXXXXXXXXXXXX.....XXXXXXXXXXXXXXX.....XXXXXXXXXXXXXXXooooo",
"oooooXXXXXXXXXX.....XXXXXXXXXXXXXXX.....XXXXXXXXXXXXXXX.....XXXXXXXXXXXXXXXooooo",
"oooooXXXXXXXXXX.....XXXXXXXXXXXXXXX.....XXXXXXXXXXXXXXX.....XXXXXXXXXXXXXXXooooo",
"oooooXXXXXXXXXX.....XXXXXXXXXXXXXXX.....XXXXXXXXXXXXXXX.....XXXXXXXXXXXXXXXooooo",
"oooooXXXXXXXXXX.....XXXXXXXXXXXXXXX.....XXXXXXXXXXXXXXX.....XXXXXXXXXXXXXXXooooo",
"oooooXXXXXXXXXX.....XXXXXXXXXXXXXXX.....XXXXXXXXXXXXXXX.....XXXXXXXXXXXXXXXooooo",
"oooooXXXXXXXXXX.....XXXXXXXXXXXXXXX.....XXXXXXXXXXXXXXX.....XXXXXXXXXXXXXXXooooo",
"oooooXXXXXXXXXX.....XXXXXXXXXXXXXXX.....XXXXXXXXXXXXXXX.....XXXXXXXXXXXXXXXooooo",
"oooooXXXXXXXXXX.....XXXXXXXXXXXXXXX.....XXXXXXXXXXXXXXX.....XXXXXXXXXXXXXXXooooo",
"oooooXXXXXXXXXX.....XXXXXXXXXXXXXXX.....XXXXXXXXXXXXXXX.....XXXXXXXXXXXXXXXooooo",
"oooooXXXXXXXXXX.....XXXXXXXXXXXXXXX.....XXXXXXXXXXXXXXX.....XXXXXXXXXXXXXXXooooo",
"oooooXXXXXXXXXX.....XXXXXXXXXXXXXXX.....XXXXXXXXXXXXXXX.....XXXXXXXXXXXXXXXooooo",
"oooooXXXXXXXXXX.....XXXXXXXXXXXXXXX.....XXXXXXXXXXXXXXX.....XXXXXXXXXXXXXXXooooo",
"oooooXXXXXXXXXX.....XXXXXXXXXXXXXXX.....XXXXXXXXXXXXXXX.....XXXXXXXXXXXXXXXooooo",
"oooooXXXXXXXXXX.....XXXXXXXXXXXXXXX.....XXXXXXXXXXXXXXX.....XXXXXXXXXXXXXXXooooo",
"oooooXXXXXXXXXX.....XXXXXXXXXXXXXXX.....XXXXXXXXXXXXXXX.....XXXXXXXXXXXXXXXooooo",
"oooooXXXXXXXXXX.....XXXXXXXXXXXXXXX.....XXXXXXXXXXXXXXX.....XXXXXXXXXXXXXXXooooo",
"oooooXXXXXXXXXX.....XXXXXXXXXXXXXXX.....XXXXXXXXXXXXXXX.....XXXXXXXXXXXXXXXooooo",
"oooooXXXXXXXXXX.....XXXXXXXXXXXXXXX.....XXXXXXXXXXXXXXX.....XXXXXXXXXXXXXXXooooo",
"oooooXXXXXXXXXX.....XXXXXXXXXXXXXXX.....XXXXXXXXXXXXXXX.....XXXXXXXXXXXXXXXooooo",
"oooooXXXXXXXXXX.....XXXXXXXXXXXXXXX.....XXXXXXXXXXXXXXX.....XXXXXXXXXXXXXXXooooo",
"oooooXXXXXXXXXX.....XXXXXXXXXXXXXXX.....XXXXXXXXXXXXXXX.....XXXXXXXXXXXXXXXooooo",
"oooooXXXXXXXXXX.....XXXXXXXXXXXXXXX.....XXXXXXXXXXXXXXX.....XXXXXXXXXXXXXXXooooo",
"oooooXXXXXXXXXX.....XXXXXXXXXXXXXXX.....XXXXXXXXXXXXXXX.....XXXXXXXXXXXXXXXooooo",
"oooooXXXXXXXXXX.....XXXXXXXXXXXXXXX.....XXXXXXXXXXXXXXX.....XXXXXXXXXXXXXXXooooo",
"oooooXXXXXXXXXX.....XXXXXXXXXXXXXXX.....XXXXXXXXXXXXXXX.....XXXXXXXXXXXXXXXooooo",
"oooooXXXXXXXXXX.....XXXXXXXXXXXXXXX.....XXXXXXXXXXXXXXX.....XXXXXXXXXXXXXXXooooo",
"oooooXXXXXXXXXX.....XXXXXXXXXXXXXXX.....XXXXXXXXXXXXXXX.....XXXXXXXXXXXXXXXooooo",
"oooooooooooooooooooooooooooooooooooooooooooooooooooooooooooooooooooooooooooooooo",
"oooooooooooooooooooooooooooooooooooooooooooooooooooooooooooooooooooooooooooooooo",
"oooooooooooooooooooooooooooooooooooooooooooooooooooooooooooooooooooooooooooooooo",
"oooooooooooooooooooooooooooooooooooooooooooooooooooooooooooooooooooooooooooooooo",
"oooooooooooooooooooooooooooooooooooooooooooooooooooooooooooooooooooooooooooooooo"
};
