/* XPM */
static char *floor[] = {
/* columns rows colors chars-per-pixel */
"80 80 3 1 ",
"  c black",
". c #008088",
"X c #00E8D8",
/* pixels */
".....XXXXXXXXXXXXXXXXXXXXXXXXXXXXXXXXXXXXXXXXXXXXXXXXXXXXXXXXXXXXXXXXXXXXXX.....",
".....XXXXXXXXXXXXXXXXXXXXXXXXXXXXXXXXXXXXXXXXXXXXXXXXXXXXXXXXXXXXXXXXXXXXXX.....",
".....XXXXXXXXXXXXXXXXXXXXXXXXXXXXXXXXXXXXXXXXXXXXXXXXXXXXXXXXXXXXXXXXXXXXXX.....",
".....XXXXXXXXXXXXXXXXXXXXXXXXXXXXXXXXXXXXXXXXXXXXXXXXXXXXXXXXXXXXXXXXXXXXXX.....",
".....XXXXXXXXXXXXXXXXXXXXXXXXXXXXXXXXXXXXXXXXXXXXXXXXXXXXXXXXXXXXXXXXXXXXXX.....",
"XXXXX......................................................................     ",
"XXXXX......................................................................     ",
"XXXXX......................................................................     ",
"XXXXX......................................................................     ",
"XXXXX......................................................................     ",
"XXXXX......................................................................     ",
"XXXXX......................................................................     ",
"XXXXX......................................................................     ",
"XXXXX......................................................................     ",
"XXXXX......................................................................     ",
"XXXXX......................................................................     ",
"XXXXX......................................................................     ",
"XXXXX......................................................................     ",
"XXXXX......................................................................     ",
"XXXXX......................................................................     ",
"XXXXX......................................................................     ",
"XXXXX......................................................................     ",
"XXXXX......................................................................     ",
"XXXXX......................................................................     ",
"XXXXX......................................................................     ",
"XXXXX......................................................................     ",
"XXXXX......................................................................     ",
"XXXXX......................................................................     ",
"XXXXX......................................................................     ",
"XXXXX......................................................................     ",
"XXXXX......................................................................     ",
"XXXXX......................................................................     ",
"XXXXX......................................................................     ",
"XXXXX......................................................................     ",
"XXXXX......................................................................     ",
"XXXXX......................................................................     ",
"XXXXX......................................................................     ",
"XXXXX......................................................................     ",
"XXXXX......................................................................     ",
"XXXXX......................................................................     ",
"XXXXX......................................................................     ",
"XXXXX......................................................................     ",
"XXXXX......................................................................     ",
"XXXXX......................................................................     ",
"XXXXX......................................................................     ",
"XXXXX......................................................................     ",
"XXXXX......................................................................     ",
"XXXXX......................................................................     ",
"XXXXX......................................................................     ",
"XXXXX......................................................................     ",
"XXXXX......................................................................     ",
"XXXXX......................................................................     ",
"XXXXX......................................................................     ",
"XXXXX......................................................................     ",
"XXXXX......................................................................     ",
"XXXXX......................................................................     ",
"XXXXX......................................................................     ",
"XXXXX......................................................................     ",
"XXXXX......................................................................     ",
"XXXXX......................................................................     ",
"XXXXX......................................................................     ",
"XXXXX......................................................................     ",
"XXXXX......................................................................     ",
"XXXXX......................................................................     ",
"XXXXX......................................................................     ",
"XXXXX......................................................................     ",
"XXXXX......................................................................     ",
"XXXXX......................................................................     ",
"XXXXX......................................................................     ",
"XXXXX......................................................................     ",
"XXXXX......................................................................     ",
"XXXXX......................................................................     ",
"XXXXX......................................................................     ",
"XXXXX......................................................................     ",
"XXXXX......................................................................     ",
".....                                                                      .....",
".....                                                                      .....",
".....                                                                      .....",
".....                                                                      .....",
".....                                                                      ....."
};
