/* XPM */
static char *player3[] = {
/* columns rows colors chars-per-pixel */
"80 80 4 1 ",
"  c #008088",
". c #C84C0C",
"X c #FC9838",
"o c #80D010",
/* pixels */
"                         oooooooooooooooooooo                                   ",
"                         oooooooooooooooooooo                                   ",
"                         oooooooooooooooooooo                                   ",
"                         oooooooooooooooooooo                                   ",
"                         oooooooooooooooooooo                                   ",
"               ooooooooooooooooooooooooo....................                    ",
"               ooooooooooooooooooooooooo....................                    ",
"               ooooooooooooooooooooooooo....................                    ",
"               ooooooooooooooooooooooooo....................                    ",
"               ooooooooooooooooooooooooo....................                    ",
"     oooooooooooooooXXXXXoooooooooo..............................               ",
"     oooooooooooooooXXXXXoooooooooo..............................               ",
"     oooooooooooooooXXXXXoooooooooo..............................               ",
"     oooooooooooooooXXXXXoooooooooo..............................               ",
"     oooooooooooooooXXXXXoooooooooo..............................               ",
"ooooooooooooooooooooXXXXXXXXXX..............................                    ",
"ooooooooooooooooooooXXXXXXXXXX..............................                    ",
"ooooooooooooooooooooXXXXXXXXXX..............................                    ",
"ooooooooooooooooooooXXXXXXXXXX..............................                    ",
"ooooooooooooooooooooXXXXXXXXXX..............................                    ",
"ooooo     ooooooooooXXXXXXXXXXXXXXX.....XXXXXXXXXXoooooXXXXX          .....     ",
"ooooo     ooooooooooXXXXXXXXXXXXXXX.....XXXXXXXXXXoooooXXXXX          .....     ",
"ooooo     ooooooooooXXXXXXXXXXXXXXX.....XXXXXXXXXXoooooXXXXX          .....     ",
"ooooo     ooooooooooXXXXXXXXXXXXXXX.....XXXXXXXXXXoooooXXXXX          .....     ",
"ooooo     ooooooooooXXXXXXXXXXXXXXX.....XXXXXXXXXXoooooXXXXX          .....     ",
"          ooooo..........XXXXXXXXXX.....XXXXXXXXXX.....XXXXXXXXXXXXXXX.....     ",
"          ooooo..........XXXXXXXXXX.....XXXXXXXXXX.....XXXXXXXXXXXXXXX.....     ",
"          ooooo..........XXXXXXXXXX.....XXXXXXXXXX.....XXXXXXXXXXXXXXX.....     ",
"          ooooo..........XXXXXXXXXX.....XXXXXXXXXX.....XXXXXXXXXXXXXXX.....     ",
"          ooooo..........XXXXXXXXXX.....XXXXXXXXXX.....XXXXXXXXXXXXXXX.....     ",
"               ...............XXXXXXXXXXXXXXXXXXXXXXXXXXXXXX          .....     ",
"               ...............XXXXXXXXXXXXXXXXXXXXXXXXXXXXXX          .....     ",
"               ...............XXXXXXXXXXXXXXXXXXXXXXXXXXXXXX          .....     ",
"               ...............XXXXXXXXXXXXXXXXXXXXXXXXXXXXXX          .....     ",
"               ...............XXXXXXXXXXXXXXXXXXXXXXXXXXXXXX          .....     ",
"                    ooooooooooooooooooooXXXXXXXXXXXXXXXXXXXX          .....     ",
"                    ooooooooooooooooooooXXXXXXXXXXXXXXXXXXXX          .....     ",
"                    ooooooooooooooooooooXXXXXXXXXXXXXXXXXXXX          .....     ",
"                    ooooooooooooooooooooXXXXXXXXXXXXXXXXXXXX          .....     ",
"                    ooooooooooooooooooooXXXXXXXXXXXXXXXXXXXX          .....     ",
"          .....ooooooooooooooooooooooooooooooooooo...............XXXXX.....     ",
"          .....ooooooooooooooooooooooooooooooooooo...............XXXXX.....     ",
"          .....ooooooooooooooooooooooooooooooooooo...............XXXXX.....     ",
"          .....ooooooooooooooooooooooooooooooooooo...............XXXXX.....     ",
"          .....ooooooooooooooooooooooooooooooooooo...............XXXXX.....     ",
"     ...............oooooXXXXXXXXXXXXXXXooooooooooooooo..........XXXXX.....     ",
"     ...............oooooXXXXXXXXXXXXXXXooooooooooooooo..........XXXXX.....     ",
"     ...............oooooXXXXXXXXXXXXXXXooooooooooooooo..........XXXXX.....     ",
"     ...............oooooXXXXXXXXXXXXXXXooooooooooooooo..........XXXXX.....     ",
"     ...............oooooXXXXXXXXXXXXXXXooooooooooooooo..........XXXXX.....     ",
"     ....................XXXXXXXXXXXXXXXooooooooooooooo..........     .....     ",
"     ....................XXXXXXXXXXXXXXXooooooooooooooo..........     .....     ",
"     ....................XXXXXXXXXXXXXXXooooooooooooooo..........     .....     ",
"     ....................XXXXXXXXXXXXXXXooooooooooooooo..........     .....     ",
"     ....................XXXXXXXXXXXXXXXooooooooooooooo..........     .....     ",
"     ....................XXXXXXXXXXooooooooooooooo.....               .....     ",
"     ....................XXXXXXXXXXooooooooooooooo.....               .....     ",
"     ....................XXXXXXXXXXooooooooooooooo.....               .....     ",
"     ....................XXXXXXXXXXooooooooooooooo.....               .....     ",
"     ....................XXXXXXXXXXooooooooooooooo.....               .....     ",
"          ooooo..........oooooooooo....................               .....     ",
"          ooooo..........oooooooooo....................               .....     ",
"          ooooo..........oooooooooo....................               .....     ",
"          ooooo..........oooooooooo....................               .....     ",
"          ooooo..........oooooooooo....................               .....     ",
"     oooooooooooooooooooooooooooooooooooooooooooooooooo                         ",
"     oooooooooooooooooooooooooooooooooooooooooooooooooo                         ",
"     oooooooooooooooooooooooooooooooooooooooooooooooooo                         ",
"     oooooooooooooooooooooooooooooooooooooooooooooooooo                         ",
"     oooooooooooooooooooooooooooooooooooooooooooooooooo                         ",
"                    ....................                                        ",
"                    ....................                                        ",
"                    ....................                                        ",
"                    ....................                                        ",
"                    ....................                                        ",
"                    .........................                                   ",
"                    .........................                                   ",
"                    .........................                                   ",
"                    .........................                                   ",
"                    .........................                                   "
};
