/* XPM */
static char *player5[] = {
/* columns rows colors chars-per-pixel */
"80 80 4 1 ",
"  c #008088",
". c #C84C0C",
"X c #FC9838",
"o c #80D010",
/* pixels */
"                         oooooooooooooooooooooooooooooo                         ",
"                         oooooooooooooooooooooooooooooo                         ",
"                         oooooooooooooooooooooooooooooo                         ",
"                         oooooooooooooooooooooooooooooo                         ",
"                         oooooooooooooooooooooooooooooo                         ",
"                    oooooooooooooooooooooooooooooooooooooooo                    ",
"                    oooooooooooooooooooooooooooooooooooooooo                    ",
"                    oooooooooooooooooooooooooooooooooooooooo                    ",
"                    oooooooooooooooooooooooooooooooooooooooo                    ",
"                    oooooooooooooooooooooooooooooooooooooooo                    ",
"          XXXXX     oooooooooooooooooooooooooooooooooooooooo     XXXXX          ",
"          XXXXX     oooooooooooooooooooooooooooooooooooooooo     XXXXX          ",
"          XXXXX     oooooooooooooooooooooooooooooooooooooooo     XXXXX          ",
"          XXXXX     oooooooooooooooooooooooooooooooooooooooo     XXXXX          ",
"          XXXXX     oooooooooooooooooooooooooooooooooooooooo     XXXXX          ",
"          XXXXXooooooooooooooooooooooooooooooooooooooooooooooooooXXXXX          ",
"          XXXXXooooooooooooooooooooooooooooooooooooooooooooooooooXXXXX          ",
"          XXXXXooooooooooooooooooooooooooooooooooooooooooooooooooXXXXX          ",
"          XXXXXooooooooooooooooooooooooooooooooooooooooooooooooooXXXXX          ",
"          XXXXXooooooooooooooooooooooooooooooooooooooooooooooooooXXXXX          ",
"          XXXXX.....oooooooooooooooooooooooooooooooooooooooo.....XXXXX          ",
"          XXXXX.....oooooooooooooooooooooooooooooooooooooooo.....XXXXX          ",
"          XXXXX.....oooooooooooooooooooooooooooooooooooooooo.....XXXXX          ",
"          XXXXX.....oooooooooooooooooooooooooooooooooooooooo.....XXXXX          ",
"          XXXXX.....oooooooooooooooooooooooooooooooooooooooo.....XXXXX          ",
"          XXXXXXXXXX..........oooooooooooooooooooo..........XXXXXXXXXX          ",
"          XXXXXXXXXX..........oooooooooooooooooooo..........XXXXXXXXXX          ",
"          XXXXXXXXXX..........oooooooooooooooooooo..........XXXXXXXXXX          ",
"          XXXXXXXXXX..........oooooooooooooooooooo..........XXXXXXXXXX          ",
"          XXXXXXXXXX..........oooooooooooooooooooo..........XXXXXXXXXX          ",
"               XXXXX...............oooooooooo...............XXXXX               ",
"               XXXXX...............oooooooooo...............XXXXX               ",
"               XXXXX...............oooooooooo...............XXXXX               ",
"               XXXXX...............oooooooooo...............XXXXX               ",
"               XXXXX...............oooooooooo...............XXXXX               ",
"               .....ooooo..............................ooooo.....               ",
"               .....ooooo..............................ooooo.....               ",
"               .....ooooo..............................ooooo.....               ",
"               .....ooooo..............................ooooo.....               ",
"               .....ooooo..............................ooooo.....               ",
"          ..........ooooooooooooooooooooooooooooooooooo..........               ",
"          ..........ooooooooooooooooooooooooooooooooooo..........               ",
"          ..........ooooooooooooooooooooooooooooooooooo..........               ",
"          ..........ooooooooooooooooooooooooooooooooooo..........               ",
"          ..........ooooooooooooooooooooooooooooooooooo..........               ",
"          ..........ooooooooooooooooooooooooooooooooooo..........XXXXX          ",
"          ..........ooooooooooooooooooooooooooooooooooo..........XXXXX          ",
"          ..........ooooooooooooooooooooooooooooooooooo..........XXXXX          ",
"          ..........ooooooooooooooooooooooooooooooooooo..........XXXXX          ",
"          ..........ooooooooooooooooooooooooooooooooooo..........XXXXX          ",
"               ..........oooooooooooooooooooooooooooooo..........XXXXX          ",
"               ..........oooooooooooooooooooooooooooooo..........XXXXX          ",
"               ..........oooooooooooooooooooooooooooooo..........XXXXX          ",
"               ..........oooooooooooooooooooooooooooooo..........XXXXX          ",
"               ..........oooooooooooooooooooooooooooooo..........XXXXX          ",
"               oooooooooo..............................oooooXXXXXXXXXX          ",
"               oooooooooo..............................oooooXXXXXXXXXX          ",
"               oooooooooo..............................oooooXXXXXXXXXX          ",
"               oooooooooo..............................oooooXXXXXXXXXX          ",
"               oooooooooo..............................oooooXXXXXXXXXX          ",
"               oooooooooooooooooooooooooooooooooooooooooooooooooo               ",
"               oooooooooooooooooooooooooooooooooooooooooooooooooo               ",
"               oooooooooooooooooooooooooooooooooooooooooooooooooo               ",
"               oooooooooooooooooooooooooooooooooooooooooooooooooo               ",
"               oooooooooooooooooooooooooooooooooooooooooooooooooo               ",
"               ...............ooooooooooooooooooooooooo.....                    ",
"               ...............ooooooooooooooooooooooooo.....                    ",
"               ...............ooooooooooooooooooooooooo.....                    ",
"               ...............ooooooooooooooooooooooooo.....                    ",
"               ...............ooooooooooooooooooooooooo.....                    ",
"               ....................          ..........                         ",
"               ....................          ..........                         ",
"               ....................          ..........                         ",
"               ....................          ..........                         ",
"               ....................          ..........                         ",
"                    ..........                                                  ",
"                    ..........                                                  ",
"                    ..........                                                  ",
"                    ..........                                                  ",
"                    ..........                                                  "
};
