/* XPM */
static char *wall[] = {
/* columns rows colors chars-per-pixel */
"80 80 3 1 ",
"  c #183C5C",
". c #008088",
"X c #00E8D8",
/* pixels */
".....XXXXXXXXXXXXXXXXXXXXXXXXXXXXXXXXXXXXXXXXXXXXXXXXXXXXXXXXXXXXXXXXXXXXXX     ",
".....XXXXXXXXXXXXXXXXXXXXXXXXXXXXXXXXXXXXXXXXXXXXXXXXXXXXXXXXXXXXXXXXXXXXXX     ",
".....XXXXXXXXXXXXXXXXXXXXXXXXXXXXXXXXXXXXXXXXXXXXXXXXXXXXXXXXXXXXXXXXXXXXXX     ",
".....XXXXXXXXXXXXXXXXXXXXXXXXXXXXXXXXXXXXXXXXXXXXXXXXXXXXXXXXXXXXXXXXXXXXXX     ",
".....XXXXXXXXXXXXXXXXXXXXXXXXXXXXXXXXXXXXXXXXXXXXXXXXXXXXXXXXXXXXXXXXXXXXXX     ",
"XXXXX.....XXXXXXXXXXXXXXXXXXXXXXXXXXXXXXXXXXXXXXXXXXXXXXXXXXXXXXXXXXXX          ",
"XXXXX.....XXXXXXXXXXXXXXXXXXXXXXXXXXXXXXXXXXXXXXXXXXXXXXXXXXXXXXXXXXXX          ",
"XXXXX.....XXXXXXXXXXXXXXXXXXXXXXXXXXXXXXXXXXXXXXXXXXXXXXXXXXXXXXXXXXXX          ",
"XXXXX.....XXXXXXXXXXXXXXXXXXXXXXXXXXXXXXXXXXXXXXXXXXXXXXXXXXXXXXXXXXXX          ",
"XXXXX.....XXXXXXXXXXXXXXXXXXXXXXXXXXXXXXXXXXXXXXXXXXXXXXXXXXXXXXXXXXXX          ",
"XXXXXXXXXX.....XXXXXXXXXXXXXXXXXXXXXXXXXXXXXXXXXXXXXXXXXXXXXXXXXX               ",
"XXXXXXXXXX.....XXXXXXXXXXXXXXXXXXXXXXXXXXXXXXXXXXXXXXXXXXXXXXXXXX               ",
"XXXXXXXXXX.....XXXXXXXXXXXXXXXXXXXXXXXXXXXXXXXXXXXXXXXXXXXXXXXXXX               ",
"XXXXXXXXXX.....XXXXXXXXXXXXXXXXXXXXXXXXXXXXXXXXXXXXXXXXXXXXXXXXXX               ",
"XXXXXXXXXX.....XXXXXXXXXXXXXXXXXXXXXXXXXXXXXXXXXXXXXXXXXXXXXXXXXX               ",
"XXXXXXXXXXXXXXX.....XXXXXXXXXXXXXXXXXXXXXXXXXXXXXXXXXXXXXXXX                    ",
"XXXXXXXXXXXXXXX.....XXXXXXXXXXXXXXXXXXXXXXXXXXXXXXXXXXXXXXXX                    ",
"XXXXXXXXXXXXXXX.....XXXXXXXXXXXXXXXXXXXXXXXXXXXXXXXXXXXXXXXX                    ",
"XXXXXXXXXXXXXXX.....XXXXXXXXXXXXXXXXXXXXXXXXXXXXXXXXXXXXXXXX                    ",
"XXXXXXXXXXXXXXX.....XXXXXXXXXXXXXXXXXXXXXXXXXXXXXXXXXXXXXXXX                    ",
"XXXXXXXXXXXXXXXXXXXX.....XXXXXXXXXXXXXXXXXXXXXXXXXXXXXX                         ",
"XXXXXXXXXXXXXXXXXXXX.....XXXXXXXXXXXXXXXXXXXXXXXXXXXXXX                         ",
"XXXXXXXXXXXXXXXXXXXX.....XXXXXXXXXXXXXXXXXXXXXXXXXXXXXX                         ",
"XXXXXXXXXXXXXXXXXXXX.....XXXXXXXXXXXXXXXXXXXXXXXXXXXXXX                         ",
"XXXXXXXXXXXXXXXXXXXX.....XXXXXXXXXXXXXXXXXXXXXXXXXXXXXX                         ",
"XXXXXXXXXXXXXXXXXXXXXXXXX..............................                         ",
"XXXXXXXXXXXXXXXXXXXXXXXXX..............................                         ",
"XXXXXXXXXXXXXXXXXXXXXXXXX..............................                         ",
"XXXXXXXXXXXXXXXXXXXXXXXXX..............................                         ",
"XXXXXXXXXXXXXXXXXXXXXXXXX..............................                         ",
"XXXXXXXXXXXXXXXXXXXXXXXXX..............................                         ",
"XXXXXXXXXXXXXXXXXXXXXXXXX..............................                         ",
"XXXXXXXXXXXXXXXXXXXXXXXXX..............................                         ",
"XXXXXXXXXXXXXXXXXXXXXXXXX..............................                         ",
"XXXXXXXXXXXXXXXXXXXXXXXXX..............................                         ",
"XXXXXXXXXXXXXXXXXXXXXXXXX..............................                         ",
"XXXXXXXXXXXXXXXXXXXXXXXXX..............................                         ",
"XXXXXXXXXXXXXXXXXXXXXXXXX..............................                         ",
"XXXXXXXXXXXXXXXXXXXXXXXXX..............................                         ",
"XXXXXXXXXXXXXXXXXXXXXXXXX..............................                         ",
"XXXXXXXXXXXXXXXXXXXXXXXXX..............................                         ",
"XXXXXXXXXXXXXXXXXXXXXXXXX..............................                         ",
"XXXXXXXXXXXXXXXXXXXXXXXXX..............................                         ",
"XXXXXXXXXXXXXXXXXXXXXXXXX..............................                         ",
"XXXXXXXXXXXXXXXXXXXXXXXXX..............................                         ",
"XXXXXXXXXXXXXXXXXXXXXXXXX..............................                         ",
"XXXXXXXXXXXXXXXXXXXXXXXXX..............................                         ",
"XXXXXXXXXXXXXXXXXXXXXXXXX..............................                         ",
"XXXXXXXXXXXXXXXXXXXXXXXXX..............................                         ",
"XXXXXXXXXXXXXXXXXXXXXXXXX..............................                         ",
"XXXXXXXXXXXXXXXXXXXXXXXXX..............................                         ",
"XXXXXXXXXXXXXXXXXXXXXXXXX..............................                         ",
"XXXXXXXXXXXXXXXXXXXXXXXXX..............................                         ",
"XXXXXXXXXXXXXXXXXXXXXXXXX..............................                         ",
"XXXXXXXXXXXXXXXXXXXXXXXXX..............................                         ",
"XXXXXXXXXXXXXXXXXXXXXXXXX                              .....                    ",
"XXXXXXXXXXXXXXXXXXXXXXXXX                              .....                    ",
"XXXXXXXXXXXXXXXXXXXXXXXXX                              .....                    ",
"XXXXXXXXXXXXXXXXXXXXXXXXX                              .....                    ",
"XXXXXXXXXXXXXXXXXXXXXXXXX                              .....                    ",
"XXXXXXXXXXXXXXXXXXXX                                        .....               ",
"XXXXXXXXXXXXXXXXXXXX                                        .....               ",
"XXXXXXXXXXXXXXXXXXXX                                        .....               ",
"XXXXXXXXXXXXXXXXXXXX                                        .....               ",
"XXXXXXXXXXXXXXXXXXXX                                        .....               ",
"XXXXXXXXXXXXXXX                                                  .....          ",
"XXXXXXXXXXXXXXX                                                  .....          ",
"XXXXXXXXXXXXXXX                                                  .....          ",
"XXXXXXXXXXXXXXX                                                  .....          ",
"XXXXXXXXXXXXXXX                                                  .....          ",
"XXXXXXXXXX                                                            .....     ",
"XXXXXXXXXX                                                            .....     ",
"XXXXXXXXXX                                                            .....     ",
"XXXXXXXXXX                                                            .....     ",
"XXXXXXXXXX                                                            .....     ",
"XXXXX                                                                      .....",
"XXXXX                                                                      .....",
"XXXXX                                                                      .....",
"XXXXX                                                                      .....",
"XXXXX                                                                      ....."
};
