/* XPM */
static char *collect[] = {
/* columns rows colors chars-per-pixel */
"48 48 4 1 ",
"  c #DAA06D",
". c #008088",
"X c gray99",
"o c white",
/* pixels */
"................................................",
"................................................",
"................................................",
"................................................",
"................................................",
"................................................",
"................................................",
"................................................",
"................................................",
"................................................",
"................................................",
"................................................",
"................................................",
"................................................",
"................................................",
"XXX...XXX...XXX.................................",
"XXX...XXX...XXX.................................",
"XXX...XXX...XXX.................................",
"...XXX...XXX...XXX..................XXXXXX......",
"...XXX...XXX...XXX..................XXXXXX......",
"...XXX...XXX...XXX..................XXXXXX......",
"                                       XXXXXXXXX",
"                                       XXXXXXXXX",
"                                       XXXXXXXXX",
"...XXX...XXX...XXX..................XXXXXX......",
"...XXX...XXX...XXX..................XXXXXX......",
"...XXX...XXX...XXX..................XXXXXX......",
"XXX...XXX...XXX.................................",
"XXX...XXX...XXX.................................",
"XXX...XXX...XXX.................................",
"................................................",
"................................................",
"................................................",
"................................................",
"................................................",
"................................................",
"................................................",
"................................................",
"................................................",
"................................................",
"................................................",
"................................................",
"................................................",
"................................................",
"................................................",
"................................................",
"................................................",
"................................................"
};
