/* XPM */
static char *collect[] = {
/* columns rows colors chars-per-pixel */
"48 48 5 1 ",
"  c black",
". c #008088",
"X c #00E8D8",
"o c #9B8EFF",
"O c white",
/* pixels */
"...XXXXXXXXXXXXXXXXXXOOOoooXXXXXXXXXXXXXXXXXX...",
"...XXXXXXXXXXXXXXXXXXOOOoooXXXXXXXXXXXXXXXXXX...",
"...XXXXXXXXXXXXXXXXXXOOOoooXXXXXXXXXXXXXXXXXX...",
"XXX...............OOOOOOoooooo...............   ",
"XXX...............OOOOOOoooooo...............   ",
"XXX...............OOOOOOoooooo...............   ",
"XXX............OOOOOOOOOooooooooo............   ",
"XXX............OOOOOOOOOooooooooo............   ",
"XXX............OOOOOOOOOooooooooo............   ",
"XXX.........OOOoooOOOooo...ooo...ooo.........   ",
"XXX.........OOOoooOOOooo...ooo...ooo.........   ",
"XXX.........OOOoooOOOooo...ooo...ooo.........   ",
"XXX.........OOOOOOooooooooo...oooooo.........   ",
"XXX.........OOOOOOooooooooo...oooooo.........   ",
"XXX.........OOOOOOooooooooo...oooooo.........   ",
"XXX.........OOOOOOooooooooo...oooooo.........   ",
"XXX.........OOOOOOooooooooo...oooooo.........   ",
"XXX.........OOOOOOooooooooo...oooooo.........   ",
"XXX.........OOOOOOooooooooo...oooooo.........   ",
"XXX.........OOOOOOooooooooo...oooooo.........   ",
"XXX.........OOOOOOooooooooo...oooooo.........   ",
"XXX.........OOOOOOooooooooo...oooooo.........   ",
"XXX.........OOOOOOooooooooo...oooooo.........   ",
"XXX.........OOOOOOooooooooo...oooooo.........   ",
"XXX.........OOOOOOooooooooo...oooooo.........   ",
"XXX.........OOOOOOooooooooo...oooooo.........   ",
"XXX.........OOOOOOooooooooo...oooooo.........   ",
"XXX.........OOOOOOooooooooo...oooooo.........   ",
"XXX.........OOOOOOooooooooo...oooooo.........   ",
"XXX.........OOOOOOooooooooo...oooooo.........   ",
"XXX.........OOOOOOooooooooo...oooooo.........   ",
"XXX.........OOOOOOooooooooo...oooooo.........   ",
"XXX.........OOOOOOooooooooo...oooooo.........   ",
"XXX.........OOOoooOOOoooooo...oooooo.........   ",
"XXX.........OOOoooOOOoooooo...oooooo.........   ",
"XXX.........OOOoooOOOoooooo...oooooo.........   ",
"XXX.........oooooooooOOO...ooo...ooo.........   ",
"XXX.........oooooooooOOO...ooo...ooo.........   ",
"XXX.........oooooooooOOO...ooo...ooo.........   ",
"XXX............oooooooooooooooooo............   ",
"XXX............oooooooooooooooooo............   ",
"XXX............oooooooooooooooooo............   ",
"XXX...............oooooooooooo...............   ",
"XXX...............oooooooooooo...............   ",
"XXX...............oooooooooooo...............   ",
"...                  oooooo                  ...",
"...                  oooooo                  ...",
"...                  oooooo                  ..."
};
