/* XPM */
static char *enemy2[] = {
/* columns rows colors chars-per-pixel */
"48 48 3 1 ",
"  c #008088",
". c #0000A8",
"X c #5C94FC",
/* pixels */
"                                                ",
"                                                ",
"                                                ",
"                                                ",
"                                                ",
"                                                ",
"                                                ",
"                                                ",
"                                                ",
"                                                ",
"                                                ",
"                                                ",
"               ......      ......               ",
"               ......      ......               ",
"               ......      ......               ",
"               ...XXX......XXX...               ",
"               ...XXX......XXX...               ",
"               ...XXX......XXX...               ",
"            ......XXX......XXX......            ",
"            ......XXX......XXX......            ",
"            ......XXX......XXX......            ",
"            ........................            ",
"            ........................            ",
"            ........................            ",
"         ..............................         ",
"         ..............................         ",
"         ..............................         ",
"         ..............................         ",
"         ..............................         ",
"         ..............................         ",
"         ..............................         ",
"         ..............................         ",
"         ..............................         ",
"            .........      .........            ",
"            .........      .........            ",
"            .........      .........            ",
"            ......            ......            ",
"            ......            ......            ",
"            ......            ......            ",
"               ...            ...               ",
"               ...            ...               ",
"               ...            ...               ",
"                                                ",
"                                                ",
"                                                ",
"                                                ",
"                                                ",
"                                                "
};
