/* XPM */
static char *exit[] = {
/* columns rows colors chars-per-pixel */
"48 48 4 1 ",
"  c #000000",
". c #183C5C",
"X c #008088",
"o c #00E8D8",
/* pixels */
"oooooooooooooooooooooooooooooooooooooooooooooooo",
"oooooooooooooooooooooooooooooooooooooooooooooooo",
"oooooooooooooooooooooooooooooooooooooooooooooooo",
"ooo                                          ooo",
"ooo                                          ooo",
"ooo                                          ooo",
"oooXXXXXX                                    ooo",
"oooXXXXXX                                    ooo",
"oooXXXXXX                                    ooo",
"oooXXXXXX...                                 ooo",
"oooXXXXXX...                                 ooo",
"oooXXXXXX...                                 ooo",
"oooXXXXXX...XXXXXXXXX                        ooo",
"oooXXXXXX...XXXXXXXXX                        ooo",
"oooXXXXXX...XXXXXXXXX                        ooo",
"oooXXXXXX...XXXXXXXXX...                     ooo",
"oooXXXXXX...XXXXXXXXX...                     ooo",
"oooXXXXXX...XXXXXXXXX...                     ooo",
"oooXXXXXX...XXXXXXXXX...XXXXXXXXX            ooo",
"oooXXXXXX...XXXXXXXXX...XXXXXXXXX            ooo",
"oooXXXXXX...XXXXXXXXX...XXXXXXXXX            ooo",
"oooXXXXXX...XXXXXXXXX...XXXXXXXXX...         ooo",
"oooXXXXXX...XXXXXXXXX...XXXXXXXXX...         ooo",
"oooXXXXXX...XXXXXXXXX...XXXXXXXXX...         ooo",
"oooXXXXXX...XXXXXXXXX...XXXXXXXXX...XXXXXXXXXooo",
"oooXXXXXX...XXXXXXXXX...XXXXXXXXX...XXXXXXXXXooo",
"oooXXXXXX...XXXXXXXXX...XXXXXXXXX...XXXXXXXXXooo",
"oooXXXXXX...XXXXXXXXX...XXXXXXXXX...XXXXXXXXXooo",
"oooXXXXXX...XXXXXXXXX...XXXXXXXXX...XXXXXXXXXooo",
"oooXXXXXX...XXXXXXXXX...XXXXXXXXX...XXXXXXXXXooo",
"oooXXXXXX...XXXXXXXXX...XXXXXXXXX...XXXXXXXXXooo",
"oooXXXXXX...XXXXXXXXX...XXXXXXXXX...XXXXXXXXXooo",
"oooXXXXXX...XXXXXXXXX...XXXXXXXXX...XXXXXXXXXooo",
"oooXXXXXX...XXXXXXXXX...XXXXXXXXX...XXXXXXXXXooo",
"oooXXXXXX...XXXXXXXXX...XXXXXXXXX...XXXXXXXXXooo",
"oooXXXXXX...XXXXXXXXX...XXXXXXXXX...XXXXXXXXXooo",
"oooXXXXXX...XXXXXXXXX...XXXXXXXXX...XXXXXXXXXooo",
"oooXXXXXX...XXXXXXXXX...XXXXXXXXX...XXXXXXXXXooo",
"oooXXXXXX...XXXXXXXXX...XXXXXXXXX...XXXXXXXXXooo",
"oooXXXXXX...XXXXXXXXX...XXXXXXXXX...XXXXXXXXXooo",
"oooXXXXXX...XXXXXXXXX...XXXXXXXXX...XXXXXXXXXooo",
"oooXXXXXX...XXXXXXXXX...XXXXXXXXX...XXXXXXXXXooo",
"oooXXXXXX...XXXXXXXXX...XXXXXXXXX...XXXXXXXXXooo",
"oooXXXXXX...XXXXXXXXX...XXXXXXXXX...XXXXXXXXXooo",
"oooXXXXXX...XXXXXXXXX...XXXXXXXXX...XXXXXXXXXooo",
"oooooooooooooooooooooooooooooooooooooooooooooooo",
"oooooooooooooooooooooooooooooooooooooooooooooooo",
"oooooooooooooooooooooooooooooooooooooooooooooooo"
};
