/* XPM */
static char *exit2[] = {
/* columns rows colors chars-per-pixel */
"48 48 4 1 ",
"  c black",
". c #183C5C",
"X c #008088",
"o c #00E8D8",
/* pixels */
"XXX         XXXXXX         XXXXXXXXX            ",
"XXX         XXXXXX         XXXXXXXXX            ",
"XXX         XXXXXX         XXXXXXXXX            ",
"   XXXXXX...      .........   XXX   .........   ",
"   XXXXXX...      .........   XXX   .........   ",
"   XXXXXX...      .........   XXX   .........   ",
"   XXXXXXXXX......oooooo   ...   ............   ",
"   XXXXXXXXX......oooooo   ...   ............   ",
"   XXXXXXXXX......oooooo   ...   ............   ",
"   oooXXXXXXXXX...   oooooo   ............   XXX",
"   oooXXXXXXXXX...   oooooo   ............   XXX",
"   oooXXXXXXXXX...   oooooo   ............   XXX",
"   ooo   XXXXXX......oooooo   ......oooooooooooo",
"   ooo   XXXXXX......oooooo   ......oooooooooooo",
"   ooo   XXXXXX......oooooo   ......oooooooooooo",
"XXX         XXXXXX...         ...oooooooooooo   ",
"XXX         XXXXXX...         ...oooooooooooo   ",
"XXX         XXXXXX...         ...oooooooooooo   ",
"XXXXXX            XXX   ......   oooooo      XXX",
"XXXXXX            XXX   ......   oooooo      XXX",
"XXXXXX            XXX   ......   oooooo      XXX",
"XXXXXX      XXXXXXXXXXXX......   ooooooooo...   ",
"XXXXXX      XXXXXXXXXXXX......   ooooooooo...   ",
"XXXXXX      XXXXXXXXXXXX......   ooooooooo...   ",
"XXX   XXXXXXXXX............      ............   ",
"XXX   XXXXXXXXX............      ............   ",
"XXX   XXXXXXXXX............      ............   ",
"   XXXXXX............   .....................   ",
"   XXXXXX............   .....................   ",
"   XXXXXX............   .....................   ",
"                     ......   ...............   ",
"                     ......   ...............   ",
"                     ......   ...............   ",
"XXXXXX   ooooooooo......   .........      ...   ",
"XXXXXX   ooooooooo......   .........      ...   ",
"XXXXXX   ooooooooo......   .........      ...   ",
"XXX            ............   ...   ......   XXX",
"XXX            ............   ...   ......   XXX",
"XXX            ............   ...   ......   XXX",
"   ooooooooo...............   ...   ......   XXX",
"   ooooooooo...............   ...   ......   XXX",
"   ooooooooo...............   ...   ......   XXX",
"            ..................   ...   ......   ",
"            ..................   ...   ......   ",
"            ..................   ...   ......   ",
"   ooooooooo.........               .........   ",
"   ooooooooo.........               .........   ",
"   ooooooooo.........               .........   "
};
