/* XPM */
static char *floor[] = {
/* columns rows colors chars-per-pixel */
"48 48 3 1 ",
"  c #000000",
". c #008088",
"X c #00E8D8",
/* pixels */
"...XXXXXXXXXXXXXXXXXXXXXXXXXXXXXXXXXXXXXXXXXX...",
"...XXXXXXXXXXXXXXXXXXXXXXXXXXXXXXXXXXXXXXXXXX...",
"...XXXXXXXXXXXXXXXXXXXXXXXXXXXXXXXXXXXXXXXXXX...",
"XXX..........................................   ",
"XXX..........................................   ",
"XXX..........................................   ",
"XXX..........................................   ",
"XXX..........................................   ",
"XXX..........................................   ",
"XXX..........................................   ",
"XXX..........................................   ",
"XXX..........................................   ",
"XXX..........................................   ",
"XXX..........................................   ",
"XXX..........................................   ",
"XXX..........................................   ",
"XXX..........................................   ",
"XXX..........................................   ",
"XXX..........................................   ",
"XXX..........................................   ",
"XXX..........................................   ",
"XXX..........................................   ",
"XXX..........................................   ",
"XXX..........................................   ",
"XXX..........................................   ",
"XXX..........................................   ",
"XXX..........................................   ",
"XXX..........................................   ",
"XXX..........................................   ",
"XXX..........................................   ",
"XXX..........................................   ",
"XXX..........................................   ",
"XXX..........................................   ",
"XXX..........................................   ",
"XXX..........................................   ",
"XXX..........................................   ",
"XXX..........................................   ",
"XXX..........................................   ",
"XXX..........................................   ",
"XXX..........................................   ",
"XXX..........................................   ",
"XXX..........................................   ",
"XXX..........................................   ",
"XXX..........................................   ",
"XXX..........................................   ",
"...                                          ...",
"...                                          ...",
"...                                          ..."
};
