/* XPM */
static char *player2[] = {
/* columns rows colors chars-per-pixel */
"80 80 4 1 ",
"  c #008088",
". c #C84C0C",
"X c #FC9838",
"o c #80D010",
/* pixels */
"                         oooooooooooooooooooooooooooooo                         ",
"                         oooooooooooooooooooooooooooooo                         ",
"                         oooooooooooooooooooooooooooooo                         ",
"                         oooooooooooooooooooooooooooooo                         ",
"                         oooooooooooooooooooooooooooooo                         ",
"                    oooooooooooooooooooooooooooooooooooooooo                    ",
"                    oooooooooooooooooooooooooooooooooooooooo                    ",
"                    oooooooooooooooooooooooooooooooooooooooo                    ",
"                    oooooooooooooooooooooooooooooooooooooooo                    ",
"                    oooooooooooooooooooooooooooooooooooooooo                    ",
"          XXXXX     ooooo..............................ooooo     XXXXX          ",
"          XXXXX     ooooo..............................ooooo     XXXXX          ",
"          XXXXX     ooooo..............................ooooo     XXXXX          ",
"          XXXXX     ooooo..............................ooooo     XXXXX          ",
"          XXXXX     ooooo..............................ooooo     XXXXX          ",
"          XXXXX     ........................................     XXXXX          ",
"          XXXXX     ........................................     XXXXX          ",
"          XXXXX     ........................................     XXXXX          ",
"          XXXXX     ........................................     XXXXX          ",
"          XXXXX     ........................................     XXXXX          ",
"          XXXXXXXXXX.....XXXXXoooooXXXXXXXXXXoooooXXXXX.....XXXXXXXXXX          ",
"          XXXXXXXXXX.....XXXXXoooooXXXXXXXXXXoooooXXXXX.....XXXXXXXXXX          ",
"          XXXXXXXXXX.....XXXXXoooooXXXXXXXXXXoooooXXXXX.....XXXXXXXXXX          ",
"          XXXXXXXXXX.....XXXXXoooooXXXXXXXXXXoooooXXXXX.....XXXXXXXXXX          ",
"          XXXXXXXXXX.....XXXXXoooooXXXXXXXXXXoooooXXXXX.....XXXXXXXXXX          ",
"          XXXXXXXXXX.....XXXXX.....XXXXXXXXXX.....XXXXX.....XXXXXXXXXX          ",
"          XXXXXXXXXX.....XXXXX.....XXXXXXXXXX.....XXXXX.....XXXXXXXXXX          ",
"          XXXXXXXXXX.....XXXXX.....XXXXXXXXXX.....XXXXX.....XXXXXXXXXX          ",
"          XXXXXXXXXX.....XXXXX.....XXXXXXXXXX.....XXXXX.....XXXXXXXXXX          ",
"          XXXXXXXXXX.....XXXXX.....XXXXXXXXXX.....XXXXX.....XXXXXXXXXX          ",
"               XXXXXXXXXXXXXXXXXXXXXXXXXXXXXXXXXXXXXXXXXXXXXXXXXX.....          ",
"               XXXXXXXXXXXXXXXXXXXXXXXXXXXXXXXXXXXXXXXXXXXXXXXXXX.....          ",
"               XXXXXXXXXXXXXXXXXXXXXXXXXXXXXXXXXXXXXXXXXXXXXXXXXX.....          ",
"               XXXXXXXXXXXXXXXXXXXXXXXXXXXXXXXXXXXXXXXXXXXXXXXXXX.....          ",
"               XXXXXXXXXXXXXXXXXXXXXXXXXXXXXXXXXXXXXXXXXXXXXXXXXX.....          ",
"               ooooooooooXXXXXXXXXX..........XXXXXXXXXXoooooooooo.....          ",
"               ooooooooooXXXXXXXXXX..........XXXXXXXXXXoooooooooo.....          ",
"               ooooooooooXXXXXXXXXX..........XXXXXXXXXXoooooooooo.....          ",
"               ooooooooooXXXXXXXXXX..........XXXXXXXXXXoooooooooo.....          ",
"               ooooooooooXXXXXXXXXX..........XXXXXXXXXXoooooooooo.....          ",
"     .........................XXXXXXXXXXXXXXXXXXXXoooooooooo...............     ",
"     .........................XXXXXXXXXXXXXXXXXXXXoooooooooo...............     ",
"     .........................XXXXXXXXXXXXXXXXXXXXoooooooooo...............     ",
"     .........................XXXXXXXXXXXXXXXXXXXXoooooooooo...............     ",
"     .........................XXXXXXXXXXXXXXXXXXXXoooooooooo...............     ",
"..........XXXXX....................oooooooooooooooooooooooooXXXXX..........     ",
"..........XXXXX....................oooooooooooooooooooooooooXXXXX..........     ",
"..........XXXXX....................oooooooooooooooooooooooooXXXXX..........     ",
"..........XXXXX....................oooooooooooooooooooooooooXXXXX..........     ",
"..........XXXXX....................oooooooooooooooooooooooooXXXXX..........     ",
".....XXXXXXXXXXXXXXX..........XXXXX..........ooooooooooXXXXXXXXXXXXXXX.....     ",
".....XXXXXXXXXXXXXXX..........XXXXX..........ooooooooooXXXXXXXXXXXXXXX.....     ",
".....XXXXXXXXXXXXXXX..........XXXXX..........ooooooooooXXXXXXXXXXXXXXX.....     ",
".....XXXXXXXXXXXXXXX..........XXXXX..........ooooooooooXXXXXXXXXXXXXXX.....     ",
".....XXXXXXXXXXXXXXX..........XXXXX..........ooooooooooXXXXXXXXXXXXXXX.....     ",
"..........XXXXX...............XXXXXooooo....................XXXXXXXXXXXXXXX     ",
"..........XXXXX...............XXXXXooooo....................XXXXXXXXXXXXXXX     ",
"..........XXXXX...............XXXXXooooo....................XXXXXXXXXXXXXXX     ",
"..........XXXXX...............XXXXXooooo....................XXXXXXXXXXXXXXX     ",
"..........XXXXX...............XXXXXooooo....................XXXXXXXXXXXXXXX     ",
"..........XXXXX...............XXXXX..........ooooooooooooooooooooXXXXX          ",
"..........XXXXX...............XXXXX..........ooooooooooooooooooooXXXXX          ",
"..........XXXXX...............XXXXX..........ooooooooooooooooooooXXXXX          ",
"..........XXXXX...............XXXXX..........ooooooooooooooooooooXXXXX          ",
"..........XXXXX...............XXXXX..........ooooooooooooooooooooXXXXX          ",
"..............................XXXXXooooooooooooooooooooooooo                    ",
"..............................XXXXXooooooooooooooooooooooooo                    ",
"..............................XXXXXooooooooooooooooooooooooo                    ",
"..............................XXXXXooooooooooooooooooooooooo                    ",
"..............................XXXXXooooooooooooooooooooooooo                    ",
"     XXXXXXXXXXXXXXXXXXXXXXXXX.....          ...............                    ",
"     XXXXXXXXXXXXXXXXXXXXXXXXX.....          ...............                    ",
"     XXXXXXXXXXXXXXXXXXXXXXXXX.....          ...............                    ",
"     XXXXXXXXXXXXXXXXXXXXXXXXX.....          ...............                    ",
"     XXXXXXXXXXXXXXXXXXXXXXXXX.....          ...............                    ",
"                    ...............                                             ",
"                    ...............                                             ",
"                    ...............                                             ",
"                    ...............                                             ",
"                    ...............                                             "
};
