/* XPM */
static char *player4[] = {
/* columns rows colors chars-per-pixel */
"48 48 4 1 ",
"  c #C84C0C",
". c #FC9838",
"X c #80D010",
"o c #008088",
/* pixels */
"oooooooooooooooooooooooooooooooooooooooooooooooo",
"oooooooooooooooooooooooooooooooooooooooooooooooo",
"oooooooooooooooooooooooooooooooooooooooooooooooo",
"oooooooooooooooXXXXXXXXXXXXooooooooooooooooooooo",
"oooooooooooooooXXXXXXXXXXXXooooooooooooooooooooo",
"oooooooooooooooXXXXXXXXXXXXooooooooooooooooooooo",
"oooooooooXXXXXXXXXXXXXXX            oooooooooooo",
"oooooooooXXXXXXXXXXXXXXX            oooooooooooo",
"oooooooooXXXXXXXXXXXXXXX            oooooooooooo",
"oooXXXXXXXXX...XXXXXX                  ooooooooo",
"oooXXXXXXXXX...XXXXXX                  ooooooooo",
"oooXXXXXXXXX...XXXXXX                  ooooooooo",
"XXXXXXXXXXXX......                  oooooooooooo",
"XXXXXXXXXXXX......                  oooooooooooo",
"XXXXXXXXXXXX......                  oooooooooooo",
"XXXoooXXXXXX.........   ......XXX...oooooooooooo",
"XXXoooXXXXXX.........   ......XXX...oooooooooooo",
"XXXoooXXXXXX.........   ......XXX...oooooooooooo",
"ooooooXXX      ......   ......   .........oooooo",
"ooooooXXX      ......   ......   .........oooooo",
"ooooooXXX      ......   ......   .........oooooo",
"ooooooooo         ..................ooo   oooooo",
"ooooooooo         ..................ooo   oooooo",
"ooooooooo         ..................ooo   oooooo",
"ooooooooooooXXXXXXXXXXXX............ooo   oooooo",
"ooooooooooooXXXXXXXXXXXX............ooo   oooooo",
"ooooooooooooXXXXXXXXXXXX............ooo   oooooo",
"ooooooXXX      XXXXXX.........      ...   oooooo",
"ooooooXXX      XXXXXX.........      ...   oooooo",
"ooooooXXX      XXXXXX.........      ...   oooooo",
"oooooo               .........XXX   ...   oooooo",
"oooooo               .........XXX   ...   oooooo",
"oooooo               .........XXX   ...   oooooo",
"oooXXX               ......XXXXXX   ooo   oooooo",
"oooXXX               ......XXXXXX   ooo   oooooo",
"oooXXX               ......XXXXXX   ooo   oooooo",
"oooXXXXXX            XXXXXXXXX   oooooo   oooooo",
"oooXXXXXX            XXXXXXXXX   oooooo   oooooo",
"oooXXXXXX            XXXXXXXXX   oooooo   oooooo",
"      XXXXXXXXXXXXXXX            XXXooo   oooooo",
"      XXXXXXXXXXXXXXX            XXXooo   oooooo",
"      XXXXXXXXXXXXXXX            XXXooo   oooooo",
"         XXXXXXXXXXXXXXXXXXXXXXXX      ooooooooo",
"         XXXXXXXXXXXXXXXXXXXXXXXX      ooooooooo",
"         XXXXXXXXXXXXXXXXXXXXXXXX      ooooooooo",
"ooo         ooooooooooooooo         oooooooooooo",
"ooo         ooooooooooooooo         oooooooooooo",
"ooo         ooooooooooooooo         oooooooooooo"
};
