/* XPM */
static char *player2_new[] = {
/* columns rows colors chars-per-pixel */
"48 48 4 1 ",
"  c #008088",
". c #C84C0C",
"X c #FC9838",
"o c #80D010",
/* pixels */
"               oooooooooooooooooo               ",
"               oooooooooooooooooo               ",
"               oooooooooooooooooo               ",
"            oooooooooooooooooooooooo            ",
"            oooooooooooooooooooooooo            ",
"            oooooooooooooooooooooooo            ",
"      XXX   ooo..................ooo   XXX      ",
"      XXX   ooo..................ooo   XXX      ",
"      XXX   ooo..................ooo   XXX      ",
"      XXX   ........................   XXX      ",
"      XXX   ........................   XXX      ",
"      XXX   ........................   XXX      ",
"      XXXXXX...XXXoooXXXXXXoooXXX...XXXXXX      ",
"      XXXXXX...XXXoooXXXXXXoooXXX...XXXXXX      ",
"      XXXXXX...XXXoooXXXXXXoooXXX...XXXXXX      ",
"      XXXXXX...XXX...XXXXXX...XXX...XXXXXX      ",
"      XXXXXX...XXX...XXXXXX...XXX...XXXXXX      ",
"      XXXXXX...XXX...XXXXXX...XXX...XXXXXX      ",
"         XXXXXXXXXXXXXXXXXXXXXXXXXXXXXX...      ",
"         XXXXXXXXXXXXXXXXXXXXXXXXXXXXXX...      ",
"         XXXXXXXXXXXXXXXXXXXXXXXXXXXXXX...      ",
"            oooXXXXXX......XXXXXXooo......      ",
"            oooXXXXXX......XXXXXXooo......      ",
"            oooXXXXXX......XXXXXXooo......      ",
"      ...............XXXXXXXXXoooooooooXXX      ",
"      ...............XXXXXXXXXoooooooooXXX      ",
"      ...............XXXXXXXXXoooooooooXXX      ",
"   ......XXX............oooooooooooooooXXX      ",
"   ......XXX............oooooooooooooooXXX      ",
"   ......XXX............oooooooooooooooXXX      ",
"   ...XXXXXXXXX......XXX......oooooo...         ",
"   ...XXXXXXXXX......XXX......oooooo...         ",
"   ...XXXXXXXXX......XXX......oooooo...         ",
"   ......XXX.........XXXooo.........ooo         ",
"   ......XXX.........XXXooo.........ooo         ",
"   ......XXX.........XXXooo.........ooo         ",
"   ......XXX.........XXX......ooooooooo         ",
"   ......XXX.........XXX......ooooooooo         ",
"   ......XXX.........XXX......ooooooooo         ",
"   ..................XXXooooooooo...            ",
"   ..................XXXooooooooo...            ",
"   ..................XXXooooooooo...            ",
"      XXXXXXXXXXXXXXX      .........            ",
"      XXXXXXXXXXXXXXX      .........            ",
"      XXXXXXXXXXXXXXX      .........            ",
"                           .........            ",
"                           .........            ",
"                           .........            "
};
