/* XPM */
static char *player6[] = {
/* columns rows colors chars-per-pixel */
"48 48 4 1 ",
"  c #C84C0C",
". c #FC9838",
"X c #80D010",
"o c #008088",
/* pixels */
"oooooooooooooooXXXXXXXXXXXXXXXXXXooooooooooooooo",
"oooooooooooooooXXXXXXXXXXXXXXXXXXooooooooooooooo",
"oooooooooooooooXXXXXXXXXXXXXXXXXXooooooooooooooo",
"ooooooooooooXXXXXXXXXXXXXXXXXXXXXXXXoooooooooooo",
"ooooooooooooXXXXXXXXXXXXXXXXXXXXXXXXoooooooooooo",
"ooooooooooooXXXXXXXXXXXXXXXXXXXXXXXXoooooooooooo",
"oooooo...oooXXXXXXXXXXXXXXXXXXXXXXXXooo...oooooo",
"oooooo...oooXXXXXXXXXXXXXXXXXXXXXXXXooo...oooooo",
"oooooo...oooXXXXXXXXXXXXXXXXXXXXXXXXooo...oooooo",
"oooooo...XXXXXXXXXXXXXXXXXXXXXXXXXXXXXX...oooooo",
"oooooo...XXXXXXXXXXXXXXXXXXXXXXXXXXXXXX...oooooo",
"oooooo...XXXXXXXXXXXXXXXXXXXXXXXXXXXXXX...oooooo",
"oooooo...   XXXXXXXXXXXXXXXXXXXXXXXX   ...oooooo",
"oooooo...   XXXXXXXXXXXXXXXXXXXXXXXX   ...oooooo",
"oooooo...   XXXXXXXXXXXXXXXXXXXXXXXX   ...oooooo",
"oooooo......      XXXXXXXXXXXX      ......oooooo",
"oooooo......      XXXXXXXXXXXX      ......oooooo",
"oooooo......      XXXXXXXXXXXX      ......oooooo",
"ooooooooo...         XXXXXX         ...ooooooooo",
"ooooooooo...         XXXXXX         ...ooooooooo",
"ooooooooo...         XXXXXX         ...ooooooooo",
"ooooooooo   XXX                  XXX   ooooooooo",
"ooooooooo   XXX                  XXX   ooooooooo",
"ooooooooo   XXX                  XXX   ooooooooo",
"ooooooooo      XXXXXXXXXXXXXXXXXXXXX      oooooo",
"ooooooooo      XXXXXXXXXXXXXXXXXXXXX      oooooo",
"ooooooooo      XXXXXXXXXXXXXXXXXXXXX      oooooo",
"oooooo...      XXXXXXXXXXXXXXXXXXXXX      oooooo",
"oooooo...      XXXXXXXXXXXXXXXXXXXXX      oooooo",
"oooooo...      XXXXXXXXXXXXXXXXXXXXX      oooooo",
"oooooo...      XXXXXXXXXXXXXXXXXX      ooooooooo",
"oooooo...      XXXXXXXXXXXXXXXXXX      ooooooooo",
"oooooo...      XXXXXXXXXXXXXXXXXX      ooooooooo",
"oooooo......XXX                  XXXXXXooooooooo",
"oooooo......XXX                  XXXXXXooooooooo",
"oooooo......XXX                  XXXXXXooooooooo",
"oooooooooXXXXXXXXXXXXXXXXXXXXXXXXXXXXXXooooooooo",
"oooooooooXXXXXXXXXXXXXXXXXXXXXXXXXXXXXXooooooooo",
"oooooooooXXXXXXXXXXXXXXXXXXXXXXXXXXXXXXooooooooo",
"oooooooooooo   XXXXXXXXXXXXXXX         ooooooooo",
"oooooooooooo   XXXXXXXXXXXXXXX         ooooooooo",
"oooooooooooo   XXXXXXXXXXXXXXX         ooooooooo",
"ooooooooooooooo      oooooo            ooooooooo",
"ooooooooooooooo      oooooo            ooooooooo",
"ooooooooooooooo      oooooo            ooooooooo",
"oooooooooooooooooooooooooooooo      oooooooooooo",
"oooooooooooooooooooooooooooooo      oooooooooooo",
"oooooooooooooooooooooooooooooo      oooooooooooo"
};
