/* XPM */
static char *player4[] = {
/* columns rows colors chars-per-pixel */
"80 80 4 1 ",
"  c #008088",
". c #C84C0C",
"X c #FC9838",
"o c #80D010",
/* pixels */
"                                                                                ",
"                                                                                ",
"                                                                                ",
"                                                                                ",
"                                                                                ",
"                         oooooooooooooooooooo                                   ",
"                         oooooooooooooooooooo                                   ",
"                         oooooooooooooooooooo                                   ",
"                         oooooooooooooooooooo                                   ",
"                         oooooooooooooooooooo                                   ",
"               ooooooooooooooooooooooooo....................                    ",
"               ooooooooooooooooooooooooo....................                    ",
"               ooooooooooooooooooooooooo....................                    ",
"               ooooooooooooooooooooooooo....................                    ",
"               ooooooooooooooooooooooooo....................                    ",
"     oooooooooooooooXXXXXoooooooooo..............................               ",
"     oooooooooooooooXXXXXoooooooooo..............................               ",
"     oooooooooooooooXXXXXoooooooooo..............................               ",
"     oooooooooooooooXXXXXoooooooooo..............................               ",
"     oooooooooooooooXXXXXoooooooooo..............................               ",
"ooooooooooooooooooooXXXXXXXXXX..............................                    ",
"ooooooooooooooooooooXXXXXXXXXX..............................                    ",
"ooooooooooooooooooooXXXXXXXXXX..............................                    ",
"ooooooooooooooooooooXXXXXXXXXX..............................                    ",
"ooooooooooooooooooooXXXXXXXXXX..............................                    ",
"ooooo     ooooooooooXXXXXXXXXXXXXXX.....XXXXXXXXXXoooooXXXXX                    ",
"ooooo     ooooooooooXXXXXXXXXXXXXXX.....XXXXXXXXXXoooooXXXXX                    ",
"ooooo     ooooooooooXXXXXXXXXXXXXXX.....XXXXXXXXXXoooooXXXXX                    ",
"ooooo     ooooooooooXXXXXXXXXXXXXXX.....XXXXXXXXXXoooooXXXXX                    ",
"ooooo     ooooooooooXXXXXXXXXXXXXXX.....XXXXXXXXXXoooooXXXXX                    ",
"          ooooo..........XXXXXXXXXX.....XXXXXXXXXX.....XXXXXXXXXXXXXXX          ",
"          ooooo..........XXXXXXXXXX.....XXXXXXXXXX.....XXXXXXXXXXXXXXX          ",
"          ooooo..........XXXXXXXXXX.....XXXXXXXXXX.....XXXXXXXXXXXXXXX          ",
"          ooooo..........XXXXXXXXXX.....XXXXXXXXXX.....XXXXXXXXXXXXXXX          ",
"          ooooo..........XXXXXXXXXX.....XXXXXXXXXX.....XXXXXXXXXXXXXXX          ",
"               ...............XXXXXXXXXXXXXXXXXXXXXXXXXXXXXX     .....          ",
"               ...............XXXXXXXXXXXXXXXXXXXXXXXXXXXXXX     .....          ",
"               ...............XXXXXXXXXXXXXXXXXXXXXXXXXXXXXX     .....          ",
"               ...............XXXXXXXXXXXXXXXXXXXXXXXXXXXXXX     .....          ",
"               ...............XXXXXXXXXXXXXXXXXXXXXXXXXXXXXX     .....          ",
"                    ooooooooooooooooooooXXXXXXXXXXXXXXXXXXXX     .....          ",
"                    ooooooooooooooooooooXXXXXXXXXXXXXXXXXXXX     .....          ",
"                    ooooooooooooooooooooXXXXXXXXXXXXXXXXXXXX     .....          ",
"                    ooooooooooooooooooooXXXXXXXXXXXXXXXXXXXX     .....          ",
"                    ooooooooooooooooooooXXXXXXXXXXXXXXXXXXXX     .....          ",
"          ooooo..........ooooooooooXXXXXXXXXXXXXXX..........XXXXX.....          ",
"          ooooo..........ooooooooooXXXXXXXXXXXXXXX..........XXXXX.....          ",
"          ooooo..........ooooooooooXXXXXXXXXXXXXXX..........XXXXX.....          ",
"          ooooo..........ooooooooooXXXXXXXXXXXXXXX..........XXXXX.....          ",
"          ooooo..........ooooooooooXXXXXXXXXXXXXXX..........XXXXX.....          ",
"          .........................XXXXXXXXXXXXXXXooooo.....XXXXX.....          ",
"          .........................XXXXXXXXXXXXXXXooooo.....XXXXX.....          ",
"          .........................XXXXXXXXXXXXXXXooooo.....XXXXX.....          ",
"          .........................XXXXXXXXXXXXXXXooooo.....XXXXX.....          ",
"          .........................XXXXXXXXXXXXXXXooooo.....XXXXX.....          ",
"     ooooo.........................XXXXXXXXXXoooooooooo.....     .....          ",
"     ooooo.........................XXXXXXXXXXoooooooooo.....     .....          ",
"     ooooo.........................XXXXXXXXXXoooooooooo.....     .....          ",
"     ooooo.........................XXXXXXXXXXoooooooooo.....     .....          ",
"     ooooo.........................XXXXXXXXXXoooooooooo.....     .....          ",
"     oooooooooo....................ooooooooooooooo.....          .....          ",
"     oooooooooo....................ooooooooooooooo.....          .....          ",
"     oooooooooo....................ooooooooooooooo.....          .....          ",
"     oooooooooo....................ooooooooooooooo.....          .....          ",
"     oooooooooo....................ooooooooooooooo.....          .....          ",
"..........ooooooooooooooooooooooooo....................ooooo     .....          ",
"..........ooooooooooooooooooooooooo....................ooooo     .....          ",
"..........ooooooooooooooooooooooooo....................ooooo     .....          ",
"..........ooooooooooooooooooooooooo....................ooooo     .....          ",
"..........ooooooooooooooooooooooooo....................ooooo     .....          ",
"...............oooooooooooooooooooooooooooooooooooooooo..........               ",
"...............oooooooooooooooooooooooooooooooooooooooo..........               ",
"...............oooooooooooooooooooooooooooooooooooooooo..........               ",
"...............oooooooooooooooooooooooooooooooooooooooo..........               ",
"...............oooooooooooooooooooooooooooooooooooooooo..........               ",
"     ...............                         ...............                    ",
"     ...............                         ...............                    ",
"     ...............                         ...............                    ",
"     ...............                         ...............                    ",
"     ...............                         ...............                    "
};
