/* XPM */
static char *player3[] = {
/* columns rows colors chars-per-pixel */
"48 48 4 1 ",
"  c #C84C0C",
". c #FC9838",
"X c #80D010",
"o c #008088",
/* pixels */
"oooooooooooooooXXXXXXXXXXXXooooooooooooooooooooo",
"oooooooooooooooXXXXXXXXXXXXooooooooooooooooooooo",
"oooooooooooooooXXXXXXXXXXXXooooooooooooooooooooo",
"oooooooooXXXXXXXXXXXXXXX            oooooooooooo",
"oooooooooXXXXXXXXXXXXXXX            oooooooooooo",
"oooooooooXXXXXXXXXXXXXXX            oooooooooooo",
"oooXXXXXXXXX...XXXXXX                  ooooooooo",
"oooXXXXXXXXX...XXXXXX                  ooooooooo",
"oooXXXXXXXXX...XXXXXX                  ooooooooo",
"XXXXXXXXXXXX......                  oooooooooooo",
"XXXXXXXXXXXX......                  oooooooooooo",
"XXXXXXXXXXXX......                  oooooooooooo",
"XXXoooXXXXXX.........   ......XXX...oooooo   ooo",
"XXXoooXXXXXX.........   ......XXX...oooooo   ooo",
"XXXoooXXXXXX.........   ......XXX...oooooo   ooo",
"ooooooXXX      ......   ......   .........   ooo",
"ooooooXXX      ......   ......   .........   ooo",
"ooooooXXX      ......   ......   .........   ooo",
"ooooooooo         ..................oooooo   ooo",
"ooooooooo         ..................oooooo   ooo",
"ooooooooo         ..................oooooo   ooo",
"ooooooooooooXXXXXXXXXXXX............oooooo   ooo",
"ooooooooooooXXXXXXXXXXXX............oooooo   ooo",
"ooooooooooooXXXXXXXXXXXX............oooooo   ooo",
"oooooo   XXXXXXXXXXXXXXXXXXXXX         ...   ooo",
"oooooo   XXXXXXXXXXXXXXXXXXXXX         ...   ooo",
"oooooo   XXXXXXXXXXXXXXXXXXXXX         ...   ooo",
"ooo         XXX.........XXXXXXXXX      ...   ooo",
"ooo         XXX.........XXXXXXXXX      ...   ooo",
"ooo         XXX.........XXXXXXXXX      ...   ooo",
"ooo            .........XXXXXXXXX      ooo   ooo",
"ooo            .........XXXXXXXXX      ooo   ooo",
"ooo            .........XXXXXXXXX      ooo   ooo",
"ooo            ......XXXXXXXXX   ooooooooo   ooo",
"ooo            ......XXXXXXXXX   ooooooooo   ooo",
"ooo            ......XXXXXXXXX   ooooooooo   ooo",
"ooooooXXX      XXXXXX            ooooooooo   ooo",
"ooooooXXX      XXXXXX            ooooooooo   ooo",
"ooooooXXX      XXXXXX            ooooooooo   ooo",
"oooXXXXXXXXXXXXXXXXXXXXXXXXXXXXXXooooooooooooooo",
"oooXXXXXXXXXXXXXXXXXXXXXXXXXXXXXXooooooooooooooo",
"oooXXXXXXXXXXXXXXXXXXXXXXXXXXXXXXooooooooooooooo",
"oooooooooooo            oooooooooooooooooooooooo",
"oooooooooooo            oooooooooooooooooooooooo",
"oooooooooooo            oooooooooooooooooooooooo",
"oooooooooooo               ooooooooooooooooooooo",
"oooooooooooo               ooooooooooooooooooooo",
"oooooooooooo               ooooooooooooooooooooo"
};
