/* XPM */
static char *player2[] = {
/* columns rows colors chars-per-pixel */
"48 48 4 1 ",
"  c #C84C0C",
". c #FC9838",
"X c #80D010",
"o c #008088",
/* pixels */
"oooooooooooooooXXXXXXXXXXXXXXXXXXooooooooooooooo",
"oooooooooooooooXXXXXXXXXXXXXXXXXXooooooooooooooo",
"oooooooooooooooXXXXXXXXXXXXXXXXXXooooooooooooooo",
"ooooooooooooXXXXXXXXXXXXXXXXXXXXXXXXoooooooooooo",
"ooooooooooooXXXXXXXXXXXXXXXXXXXXXXXXoooooooooooo",
"ooooooooooooXXXXXXXXXXXXXXXXXXXXXXXXoooooooooooo",
"oooooo...oooXXX                  XXXooo...oooooo",
"oooooo...oooXXX                  XXXooo...oooooo",
"oooooo...oooXXX                  XXXooo...oooooo",
"oooooo...ooo                        ooo...oooooo",
"oooooo...ooo                        ooo...oooooo",
"oooooo...ooo                        ooo...oooooo",
"oooooo......   ...XXX......XXX...   ......oooooo",
"oooooo......   ...XXX......XXX...   ......oooooo",
"oooooo......   ...XXX......XXX...   ......oooooo",
"oooooo......   ...   ......   ...   ......oooooo",
"oooooo......   ...   ......   ...   ......oooooo",
"oooooo......   ...   ......   ...   ......oooooo",
"ooooooooo..............................   oooooo",
"ooooooooo..............................   oooooo",
"ooooooooo..............................   oooooo",
"oooooooooXXXXXX......      ......XXXXXX   oooooo",
"oooooooooXXXXXX......      ......XXXXXX   oooooo",
"oooooooooXXXXXX......      ......XXXXXX   oooooo",
"ooo               ............XXXXXX         ooo",
"ooo               ............XXXXXX         ooo",
"ooo               ............XXXXXX         ooo",
"      ...            XXXXXXXXXXXXXXX...      ooo",
"      ...            XXXXXXXXXXXXXXX...      ooo",
"      ...            XXXXXXXXXXXXXXX...      ooo",
"   .........      ...      XXXXXX.........   ooo",
"   .........      ...      XXXXXX.........   ooo",
"   .........      ...      XXXXXX.........   ooo",
"      ...         ...XXX            .........ooo",
"      ...         ...XXX            .........ooo",
"      ...         ...XXX            .........ooo",
"      ...         ...      XXXXXXXXXXXX...oooooo",
"      ...         ...      XXXXXXXXXXXX...oooooo",
"      ...         ...      XXXXXXXXXXXX...oooooo",
"                  ...XXXXXXXXXXXXXXXoooooooooooo",
"                  ...XXXXXXXXXXXXXXXoooooooooooo",
"                  ...XXXXXXXXXXXXXXXoooooooooooo",
"ooo...............   oooooo         oooooooooooo",
"ooo...............   oooooo         oooooooooooo",
"ooo...............   oooooo         oooooooooooo",
"oooooooooooo         ooooooooooooooooooooooooooo",
"oooooooooooo         ooooooooooooooooooooooooooo",
"oooooooooooo         ooooooooooooooooooooooooooo"
};
