/* XPM */
static char *player5[] = {
/* columns rows colors chars-per-pixel */
"48 48 4 1 ",
"  c #C84C0C",
". c #FC9838",
"X c #80D010",
"o c #008088",
/* pixels */
"oooooooooooooooXXXXXXXXXXXXXXXXXXooooooooooooooo",
"oooooooooooooooXXXXXXXXXXXXXXXXXXooooooooooooooo",
"oooooooooooooooXXXXXXXXXXXXXXXXXXooooooooooooooo",
"ooooooooooooXXXXXXXXXXXXXXXXXXXXXXXXoooooooooooo",
"ooooooooooooXXXXXXXXXXXXXXXXXXXXXXXXoooooooooooo",
"ooooooooooooXXXXXXXXXXXXXXXXXXXXXXXXoooooooooooo",
"oooooo...oooXXXXXXXXXXXXXXXXXXXXXXXXooo...oooooo",
"oooooo...oooXXXXXXXXXXXXXXXXXXXXXXXXooo...oooooo",
"oooooo...oooXXXXXXXXXXXXXXXXXXXXXXXXooo...oooooo",
"oooooo...XXXXXXXXXXXXXXXXXXXXXXXXXXXXXX...oooooo",
"oooooo...XXXXXXXXXXXXXXXXXXXXXXXXXXXXXX...oooooo",
"oooooo...XXXXXXXXXXXXXXXXXXXXXXXXXXXXXX...oooooo",
"oooooo...   XXXXXXXXXXXXXXXXXXXXXXXX   ...oooooo",
"oooooo...   XXXXXXXXXXXXXXXXXXXXXXXX   ...oooooo",
"oooooo...   XXXXXXXXXXXXXXXXXXXXXXXX   ...oooooo",
"oooooo......      XXXXXXXXXXXX      ......oooooo",
"oooooo......      XXXXXXXXXXXX      ......oooooo",
"oooooo......      XXXXXXXXXXXX      ......oooooo",
"ooooooooo...         XXXXXX         ...ooooooooo",
"ooooooooo...         XXXXXX         ...ooooooooo",
"ooooooooo...         XXXXXX         ...ooooooooo",
"ooooooooo   XXX                  XXX   ooooooooo",
"ooooooooo   XXX                  XXX   ooooooooo",
"ooooooooo   XXX                  XXX   ooooooooo",
"oooooo      XXXXXXXXXXXXXXXXXXXXX      ooooooooo",
"oooooo      XXXXXXXXXXXXXXXXXXXXX      ooooooooo",
"oooooo      XXXXXXXXXXXXXXXXXXXXX      ooooooooo",
"oooooo      XXXXXXXXXXXXXXXXXXXXX      ...oooooo",
"oooooo      XXXXXXXXXXXXXXXXXXXXX      ...oooooo",
"oooooo      XXXXXXXXXXXXXXXXXXXXX      ...oooooo",
"ooooooooo      XXXXXXXXXXXXXXXXXX      ...oooooo",
"ooooooooo      XXXXXXXXXXXXXXXXXX      ...oooooo",
"ooooooooo      XXXXXXXXXXXXXXXXXX      ...oooooo",
"oooooooooXXXXXX                  XXX......oooooo",
"oooooooooXXXXXX                  XXX......oooooo",
"oooooooooXXXXXX                  XXX......oooooo",
"oooooooooXXXXXXXXXXXXXXXXXXXXXXXXXXXXXXooooooooo",
"oooooooooXXXXXXXXXXXXXXXXXXXXXXXXXXXXXXooooooooo",
"oooooooooXXXXXXXXXXXXXXXXXXXXXXXXXXXXXXooooooooo",
"ooooooooo         XXXXXXXXXXXXXXX   oooooooooooo",
"ooooooooo         XXXXXXXXXXXXXXX   oooooooooooo",
"ooooooooo         XXXXXXXXXXXXXXX   oooooooooooo",
"ooooooooo            oooooo      ooooooooooooooo",
"ooooooooo            oooooo      ooooooooooooooo",
"ooooooooo            oooooo      ooooooooooooooo",
"oooooooooooo      oooooooooooooooooooooooooooooo",
"oooooooooooo      oooooooooooooooooooooooooooooo",
"oooooooooooo      oooooooooooooooooooooooooooooo"
};
