/* XPM */
static char *wall[] = {
/* columns rows colors chars-per-pixel */
"48 48 3 1 ",
"  c #183C5C",
". c #008088",
"X c #00E8D8",
/* pixels */
"...XXXXXXXXXXXXXXXXXXXXXXXXXXXXXXXXXXXXXXXXXX   ",
"...XXXXXXXXXXXXXXXXXXXXXXXXXXXXXXXXXXXXXXXXXX   ",
"...XXXXXXXXXXXXXXXXXXXXXXXXXXXXXXXXXXXXXXXXXX   ",
"XXX...XXXXXXXXXXXXXXXXXXXXXXXXXXXXXXXXXXXX      ",
"XXX...XXXXXXXXXXXXXXXXXXXXXXXXXXXXXXXXXXXX      ",
"XXX...XXXXXXXXXXXXXXXXXXXXXXXXXXXXXXXXXXXX      ",
"XXXXXX...XXXXXXXXXXXXXXXXXXXXXXXXXXXXXX         ",
"XXXXXX...XXXXXXXXXXXXXXXXXXXXXXXXXXXXXX         ",
"XXXXXX...XXXXXXXXXXXXXXXXXXXXXXXXXXXXXX         ",
"XXXXXXXXX...XXXXXXXXXXXXXXXXXXXXXXXX            ",
"XXXXXXXXX...XXXXXXXXXXXXXXXXXXXXXXXX            ",
"XXXXXXXXX...XXXXXXXXXXXXXXXXXXXXXXXX            ",
"XXXXXXXXXXXX...XXXXXXXXXXXXXXXXXX               ",
"XXXXXXXXXXXX...XXXXXXXXXXXXXXXXXX               ",
"XXXXXXXXXXXX...XXXXXXXXXXXXXXXXXX               ",
"XXXXXXXXXXXXXXX..................               ",
"XXXXXXXXXXXXXXX..................               ",
"XXXXXXXXXXXXXXX..................               ",
"XXXXXXXXXXXXXXX..................               ",
"XXXXXXXXXXXXXXX..................               ",
"XXXXXXXXXXXXXXX..................               ",
"XXXXXXXXXXXXXXX..................               ",
"XXXXXXXXXXXXXXX..................               ",
"XXXXXXXXXXXXXXX..................               ",
"XXXXXXXXXXXXXXX..................               ",
"XXXXXXXXXXXXXXX..................               ",
"XXXXXXXXXXXXXXX..................               ",
"XXXXXXXXXXXXXXX..................               ",
"XXXXXXXXXXXXXXX..................               ",
"XXXXXXXXXXXXXXX..................               ",
"XXXXXXXXXXXXXXX..................               ",
"XXXXXXXXXXXXXXX..................               ",
"XXXXXXXXXXXXXXX..................               ",
"XXXXXXXXXXXXXXX                  ...            ",
"XXXXXXXXXXXXXXX                  ...            ",
"XXXXXXXXXXXXXXX                  ...            ",
"XXXXXXXXXXXX                        ...         ",
"XXXXXXXXXXXX                        ...         ",
"XXXXXXXXXXXX                        ...         ",
"XXXXXXXXX                              ...      ",
"XXXXXXXXX                              ...      ",
"XXXXXXXXX                              ...      ",
"XXXXXX                                    ...   ",
"XXXXXX                                    ...   ",
"XXXXXX                                    ...   ",
"XXX                                          ...",
"XXX                                          ...",
"XXX                                          ..."
};
